<svg width="35" height="52" viewBox="0 0 35 52" fill="none" xmlns="http://www.w3.org/2000/svg">
<g clip-path="url(#clip0_808_8798)">
<path d="M28.9496 47.9638C28.9496 46.8604 28.0555 45.9663 26.9521 45.9663C25.8487 45.9663 24.9546 46.8604 24.9546 47.9638C24.9546 49.0673 25.8487 49.9613 26.9521 49.9613C28.0555 49.9613 28.9496 49.0673 28.9496 47.9638Z" fill="#9B773A"/>
<path d="M22.9863 11.969C22.9863 10.8639 22.0905 9.96753 20.9848 9.96753C19.8791 9.96753 18.9833 10.8639 18.9833 11.969C18.9833 13.0742 19.8791 13.9706 20.9848 13.9706C22.0905 13.9706 22.9863 13.0742 22.9863 11.969Z" fill="#9B773A"/>
<path d="M16.9817 11.969C16.9817 10.8639 16.0859 9.96753 14.9802 9.96753C13.8744 9.96753 12.9786 10.8639 12.9786 11.969C12.9786 13.0742 13.8744 13.9706 14.9802 13.9706C16.0859 13.9706 16.9817 13.0742 16.9817 11.969Z" fill="#9B773A"/>
<path d="M10.9771 11.969C10.9771 10.8639 10.0813 9.96753 8.9756 9.96753C7.86988 9.96753 6.97351 10.8639 6.97351 11.969C6.97351 13.0742 7.86988 13.9706 8.9756 13.9706C10.0813 13.9706 10.9771 13.0742 10.9771 11.969Z" fill="#9B773A"/>
<path d="M30.9923 4.00304C30.9923 1.79216 32.7845 0 34.9953 0V4.00304H30.9923Z" fill="#9B773A"/>
<path d="M8.43168 15.9721C8.42196 15.9721 8.41223 15.9733 8.40308 15.9733C7.61483 15.9881 6.97931 16.6117 6.97473 17.3816C6.97473 17.3845 6.97473 17.3873 6.97473 17.3908V43.9934H9.51967C9.5294 43.9934 9.53912 43.9922 9.54828 43.9922C10.3371 43.9774 10.972 43.3539 10.9772 42.5833C10.9772 42.5805 10.9772 42.5776 10.9772 42.5748V15.9716H8.43225L8.43168 15.9721Z" fill="#9B773A"/>
<path d="M14.4362 15.9721C14.4265 15.9721 14.4167 15.9733 14.4076 15.9733C13.6188 15.9881 12.9838 16.6117 12.9792 17.3816C12.9792 17.3845 12.9792 17.3873 12.9792 17.3908V43.9934H15.5248C15.5345 43.9934 15.5436 43.9922 15.5534 43.9922C16.3416 43.9774 16.9771 43.3533 16.9823 42.5833C16.9823 42.5805 16.9823 42.5776 16.9823 42.5748V15.9716H14.4373L14.4362 15.9721Z" fill="#9B773A"/>
<path d="M20.4413 15.9721C20.4316 15.9721 20.4224 15.9733 20.4127 15.9733C19.6239 15.9887 18.9889 16.6122 18.9838 17.3816C18.9838 17.3845 18.9838 17.3873 18.9838 17.3908V43.9934H21.5287C21.5384 43.9934 21.5476 43.9922 21.5573 43.9922C22.3461 43.9774 22.9811 43.3533 22.9862 42.5833C22.9862 42.5805 22.9862 42.5776 22.9862 42.5748V15.9716H20.4413V15.9721Z" fill="#9B773A"/>
<path d="M26.4459 9.96753C26.4362 9.96753 26.427 9.96867 26.4179 9.96867C25.6411 9.98412 25.0141 10.6208 24.9907 11.4136C24.9907 11.4291 24.9884 11.4445 24.9884 11.4599V43.9939H27.5333C27.5431 43.9939 27.5522 43.9928 27.5614 43.9922C28.3382 43.9773 28.9651 43.3401 28.9892 42.5473C28.9892 42.5318 28.9914 42.5164 28.9914 42.5009V9.96753H26.4465H26.4459Z" fill="#9B773A"/>
<path d="M32.4551 6.00281C32.4459 6.00281 32.4362 6.00395 32.4271 6.00395C31.652 6.0194 31.0256 6.65721 30.9998 7.45346C30.9998 7.47063 30.9976 7.48721 30.9976 7.50495V43.9956H33.5425C33.5522 43.9956 33.5608 43.9945 33.5705 43.9939C34.3456 43.979 34.9714 43.3406 34.9977 42.5444C34.9977 42.5272 35 42.5106 35 42.4935V6.00281H32.4551Z" fill="#9B773A"/>
<path d="M2.42709 15.972C2.41794 15.972 2.40878 15.9732 2.39963 15.9738C1.62225 15.9892 0.995307 16.6253 0.971854 17.417H0.971282C0.971282 17.4324 0.968994 17.4473 0.968994 17.4627V51.9999H3.51394C3.52309 51.9999 3.53224 51.9988 3.54139 51.9982C4.31821 51.9828 4.94572 51.3467 4.96917 50.5544C4.96917 50.539 4.97146 50.5241 4.97146 50.5092V15.972H2.42709Z" fill="#9B773A"/>
</g>
<defs>
<clipPath id="clip0_808_8798">
<rect width="34.031" height="52" fill="white" transform="translate(0.968994)"/>
</clipPath>
</defs>
</svg>
